# xmcd
#
# Track frame offsets:
# 150
# 17849
# 35876
# 51033
# 68610
# 88104
# 104940
# 123734
# 141448
# 154589
# 169890
#
# Disc length: 2428 seconds
#
# Revision: 1
# Processed by: cddbd v1.5.2PL0 Copyright (c) Steve Scherf et al.
# Submitted via: Axialis_AX_CDPlayer 2.6
#
DISCID=a2097a0b
DTITLE=Alain SOUCHON - La vie  théodore
DYEAR=1900
DGENRE=
TTITLE0=putain ça penche
TTITLE1=j'aimais mieux quand c'était toi
TTITLE2=bonjour tristesse
TTITLE3=la vie théodore
TTITLE4=en collant l'oreille sur l'appareil
TTITLE5=à cause d'elle
TTITLE6=et si en plus y'a personne
TTITLE7=le mystrer
TTITLE8=le marin
TTITLE9=l'ile du dédain
TTITLE10=lisa
EXTD=
EXTT0=
EXTT1=
EXTT2=
EXTT3=
EXTT4=
EXTT5=
EXTT6=
EXTT7=
EXTT8=
EXTT9=
EXTT10=
PLAYORDER=
